<?xml version="1.0" encoding="UTF-8"?>
<svg xmlns="http://www.w3.org/2000/svg" xmlns:xlink="http://www.w3.org/1999/xlink" width="25px" height="25px" viewBox="0 0 25 25" version="1.1">
<g id="surface1">
<path style=" stroke:none;fill-rule:nonzero;fill:rgb(0%,0%,0%);fill-opacity:1;" d="M 21.335938 3.664062 C 18.972656 1.300781 15.835938 0 12.5 0 C 9.164062 0 6.027344 1.300781 3.664062 3.664062 C 1.300781 6.027344 0 9.164062 0 12.5 C 0 15.835938 1.300781 18.972656 3.664062 21.335938 C 6.027344 23.699219 9.164062 25 12.5 25 L 12.5 24.898438 L 12.5 25 C 15.835938 25 18.972656 23.699219 21.335938 21.335938 C 23.699219 18.972656 25 15.835938 25 12.5 C 25 9.164062 23.699219 6.027344 21.335938 3.664062 Z M 20.472656 20.472656 C 18.339844 22.605469 15.507812 23.78125 12.5 23.78125 C 9.492188 23.78125 6.660156 22.605469 4.527344 20.472656 C 2.394531 18.339844 1.21875 15.507812 1.21875 12.5 C 1.21875 9.492188 2.394531 6.660156 4.527344 4.527344 C 6.660156 2.394531 9.492188 1.21875 12.5 1.21875 C 15.507812 1.21875 18.339844 2.394531 20.472656 4.527344 C 22.605469 6.660156 23.78125 9.492188 23.78125 12.5 C 23.78125 15.507812 22.605469 18.339844 20.472656 20.472656 Z M 20.472656 20.472656 "/>
<path style=" stroke:none;fill-rule:nonzero;fill:rgb(0%,0%,0%);fill-opacity:1;" d="M 12.5 3.261719 C 7.398438 3.265625 3.265625 7.398438 3.261719 12.5 C 3.265625 17.601562 7.398438 21.734375 12.5 21.738281 C 17.601562 21.734375 21.738281 17.601562 21.738281 12.5 C 21.738281 7.398438 17.601562 3.265625 12.5 3.261719 Z M 18.304688 18.304688 C 16.816406 19.789062 14.769531 20.707031 12.5 20.707031 C 10.230469 20.707031 8.183594 19.789062 6.695312 18.304688 C 5.210938 16.816406 4.292969 14.769531 4.292969 12.5 C 4.292969 10.230469 5.210938 8.183594 6.695312 6.695312 C 8.183594 5.210938 10.230469 4.292969 12.5 4.292969 C 14.769531 4.292969 16.816406 5.210938 18.304688 6.695312 C 19.789062 8.183594 20.707031 10.230469 20.707031 12.5 C 20.707031 14.769531 19.789062 16.816406 18.304688 18.304688 Z M 18.304688 18.304688 "/>
<path style=" stroke:none;fill-rule:nonzero;fill:rgb(0%,0%,0%);fill-opacity:1;" d="M 15.53125 8.058594 L 15.480469 6.449219 L 14.398438 6.464844 L 14.449219 8.074219 Z M 15.53125 8.058594 "/>
<path style=" stroke:none;fill-rule:nonzero;fill:rgb(0%,0%,0%);fill-opacity:1;" d="M 6.300781 10.527344 L 8.4375 11.617188 L 8.933594 10.644531 L 6.796875 9.554688 Z M 6.300781 10.527344 "/>
<path style=" stroke:none;fill-rule:nonzero;fill:rgb(0%,0%,0%);fill-opacity:1;" d="M 7.320312 14.105469 C 6.761719 14.105469 6.308594 14.558594 6.308594 15.117188 C 6.308594 15.675781 6.761719 16.128906 7.320312 16.128906 C 7.882812 16.128906 8.335938 15.675781 8.335938 15.117188 C 8.335938 14.558594 7.882812 14.105469 7.320312 14.105469 Z M 7.320312 14.105469 "/>
<path style=" stroke:none;fill-rule:nonzero;fill:rgb(0%,0%,0%);fill-opacity:1;" d="M 12.332031 7.464844 C 12.332031 6.6875 11.699219 6.058594 10.925781 6.058594 C 10.144531 6.058594 9.515625 6.6875 9.515625 7.464844 C 9.515625 8.242188 10.144531 8.871094 10.925781 8.871094 C 11.699219 8.871094 12.332031 8.242188 12.332031 7.464844 Z M 12.332031 7.464844 "/>
<path style=" stroke:none;fill-rule:nonzero;fill:rgb(0%,0%,0%);fill-opacity:1;" d="M 10.164062 18.632812 L 11.742188 19.082031 L 11.882812 18.0625 L 10.304688 17.613281 Z M 10.164062 18.632812 "/>
<path style=" stroke:none;fill-rule:nonzero;fill:rgb(0%,0%,0%);fill-opacity:1;" d="M 11.441406 12.714844 C 10.761719 12.714844 10.210938 13.265625 10.210938 13.941406 C 10.210938 14.621094 10.761719 15.171875 11.441406 15.171875 C 12.117188 15.171875 12.667969 14.621094 12.667969 13.941406 C 12.667969 13.265625 12.117188 12.714844 11.441406 12.714844 Z M 11.441406 12.714844 "/>
<path style=" stroke:none;fill-rule:nonzero;fill:rgb(0%,0%,0%);fill-opacity:1;" d="M 15.746094 15.648438 C 14.992188 15.648438 14.382812 16.257812 14.382812 17.015625 C 14.382812 17.769531 14.992188 18.382812 15.746094 18.382812 C 16.503906 18.382812 17.113281 17.769531 17.113281 17.015625 C 17.113281 16.257812 16.503906 15.648438 15.746094 15.648438 Z M 15.746094 15.648438 "/>
<path style=" stroke:none;fill-rule:nonzero;fill:rgb(0%,0%,0%);fill-opacity:1;" d="M 16.753906 11.789062 C 17.4375 11.789062 17.992188 11.234375 17.992188 10.550781 C 17.992188 9.867188 17.4375 9.3125 16.753906 9.3125 C 16.066406 9.3125 15.511719 9.867188 15.511719 10.550781 C 15.511719 11.234375 16.066406 11.789062 16.753906 11.789062 Z M 16.753906 11.789062 "/>
<path style=" stroke:none;fill-rule:nonzero;fill:rgb(0%,0%,0%);fill-opacity:1;" d="M 18.941406 13.246094 L 17.5625 14.183594 L 17.882812 14.996094 L 19.265625 14.058594 Z M 18.941406 13.246094 "/>
</g>
</svg>
